:FULLY-SPECIFIED
:FORCE-ALL-JOINTS-BE-3DOF
:DEGREES
1733
root -5.243 15.5666 27.06 -173.365 -0.615823 -171.754
lfemur -45.3318 10.3079 -15.8995
ltibia 53.2094 -0 0
lfoot -16.6109 27.8733 -0.145853
ltoes -9.44116 0 0
rfemur -18.4962 -13.3177 13.8629
rtibia 62.1824 -0 0
rfoot -9.02828 -26.3463 0.0523174
rtoes 14.4939 -0 0
lowerback 16.0767 3.66131 -7.78949
upperback -0.694808 3.54 1.11215
thorax -10.5281 2.18722 4.62711
lowerneck 5.7822 -16.7834 -18.9591
upperneck -4.23785 -23.9162 26.3763
head 3.28614 -12.3392 9.74274
lclavicle 1.18078e-13 3.02153e-14 0
lhumerus -56.3078 -34.4357 118.999
lradius 99.1622 -0 0
lwrist 50.4483 0 0
lhand 0.370454 35.8732 -0.0688317
lfingers 7.12502 -0 0
lthumb 25.9569 64.2563 -0.0333454
rclavicle 1.18078e-13 3.02153e-14 0
rhumerus 13.2854 50.9986 -39.9395
rradius 132.828 -0 0
rwrist -16.1876 0 0
rhand 8.04717 -27.9346 0.0384925
rfingers 7.12502 -0 0
rthumb 33.2991 -55.1916 -0.0420346
1734
root -5.17534 15.5688 27.1119 -173.621 -0.355626 -171.936
lfemur -44.56 8.72887 -15.1383
ltibia 52.8158 -0 0
lfoot -16.7431 26.8428 -0.128965
ltoes -11.2295 0 0
rfemur -19.3662 -13.2965 14.1421
rtibia 61.6707 -0 0
rfoot -9.35735 -26.2298 0.0449828
rtoes 14.2032 -0 0
lowerback 16.2654 3.78501 -8.08406
upperback -0.590436 3.62564 0.919411
thorax -10.5394 2.23751 4.55159
lowerneck 5.8506 -16.8611 -19.1076
upperneck -4.30569 -24.0027 26.5326
head 3.29504 -12.3755 9.80141
lclavicle 1.18078e-13 3.02153e-14 0
lhumerus -56.6526 -33.3031 118.172
lradius 99.5044 -0 0
lwrist 50.6978 0 0
lhand 0.425027 35.154 -0.0616177
lfingers 7.12502 -0 0
lthumb 26.0094 63.5321 -0.0257859
rclavicle 1.18078e-13 3.02153e-14 0
rhumerus 8.93793 51.4112 -42.6065
rradius 133.439 -0 0
rwrist -16.085 0 0
rhand 8.11895 -28.1428 0.0300193
rfingers 7.12502 -0 0
rthumb 33.3693 -55.4093 -0.0546232
1735
root -5.10767 15.571 27.1637 -173.88 -0.0206591 -172.124
lfemur -43.7593 7.15173 -14.3844
ltibia 52.5237 -0 0
lfoot -16.8753 25.7822 -0.115648
ltoes -13.0915 0 0
rfemur -20.3337 -13.3319 14.4735
rtibia 61.1748 -0 0
rfoot -9.70938 -26.0858 0.0371712
rtoes 13.821 -0 0
lowerback 16.4539 3.90599 -8.35492
upperback -0.483541 3.71149 0.73364
thorax -10.5431 2.28604 4.47178
lowerneck 5.89523 -16.9113 -19.2183
upperneck -4.34784 -24.0477 26.636
head 3.29902 -12.3884 9.84408
lclavicle 1.18078e-13 3.02153e-14 0
lhumerus -56.9847 -32.1902 117.298
lradius 99.8455 -0 0
lwrist 50.8008 0 0
lhand 0.415894 34.4281 -0.0528702
lfingers 7.12502 -0 0
lthumb 26.0006 62.807 -0.0175301
rclavicle 1.18078e-13 3.02153e-14 0
rhumerus 4.74187 51.5281 -45.2138
rradius 133.738 -0 0
rwrist -15.9332 0 0
rhand 8.13461 -28.3649 0.02345
rfingers 7.12502 -0 0
rthumb 33.3854 -55.6432 -0.0630591
1736
root -5.04 15.5731 27.2155 -174.132 0.517824 -172.308
lfemur -42.9335 5.58608 -13.623
ltibia 52.3436 -0 0
lfoot -16.9905 24.6899 -0.106439
ltoes -15.0133 0 0
rfemur -21.3687 -13.4464 14.8588
rtibia 60.6801 -0 0
rfoot -10.084 -25.9191 0.0293151
rtoes 13.338 -0 0
lowerback 16.6374 4.02993 -8.59396
upperback -0.376892 3.80708 0.552708
thorax -10.5402 2.33699 4.37839
lowerneck 5.90425 -16.9264 -19.2844
upperneck -4.35285 -24.0402 26.677
head 3.29981 -12.3709 9.86762
lclavicle 1.18078e-13 3.02153e-14 0
lhumerus -57.3438 -31.0681 116.383
lradius 100.195 -0 0
lwrist 50.7431 0 0
lhand 0.341371 33.6914 -0.0429133
lfingers 7.12502 -0 0
lthumb 25.9289 62.0767 -0.00891371
rclavicle 1.18078e-13 3.02153e-14 0
rhumerus 0.739309 51.3253 -47.7116
rradius 133.659 -0 0
rwrist -15.7075 0 0
rhand 8.06458 -28.601 0.019178
rfingers 7.12502 -0 0
rthumb 33.319 -55.8973 -0.066653
1737
root -4.97234 15.5753 27.2673 -174.364 1.38871 -172.482
lfemur -42.0867 4.04115 -12.839
ltibia 52.2859 -0 0
lfoot -17.0715 23.5641 -0.101215
ltoes -16.9809 0 0
rfemur -22.4423 -13.6624 15.301
rtibia 60.1719 -0 0
rfoot -10.4808 -25.7345 0.02181
rtoes 12.7453 -0 0
lowerback 16.8113 4.1624 -8.79301
upperback -0.273323 3.92189 0.374514
thorax -10.5315 2.39454 4.26212
lowerneck 5.86591 -16.8984 -19.2987
upperneck -4.30947 -23.9689 26.6461
head 3.29913 -12.3165 9.86892
lclavicle 1.18078e-13 3.02153e-14 0
lhumerus -57.7693 -29.9092 115.432
lradius 100.561 -0 0
lwrist 50.5105 0 0
lhand 0.199768 32.9395 -0.0321579
lfingers 7.12502 -0 0
lthumb 25.7926 61.3372 -0.000336295
rclavicle 1.18078e-13 3.02153e-14 0
rhumerus -3.02503 50.7801 -50.0477
rradius 133.135 -0 0
rwrist -15.3803 0 0
rhand 7.87928 -28.8509 0.017298
rfingers 7.12502 -0 0
rthumb 33.1418 -56.1759 -0.0650502
1738
root -4.90467 15.5775 27.3191 -174.566 2.72099 -172.641
lfemur -41.2235 2.52581 -12.0169
ltibia 52.361 -0 0
lfoot -17.1013 22.4033 -0.0991327
ltoes -18.9802 0 0
rfemur -23.5262 -14.0026 15.8044
rtibia 59.6355 -0 0
rfoot -10.8993 -25.537 0.0150042
rtoes 12.0336 -0 0
lowerback 16.9708 4.30893 -8.94391
upperback -0.175731 4.06541 0.196971
thorax -10.5181 2.46287 4.11369
lowerneck 5.7686 -16.8197 -19.2544
upperneck -4.20679 -23.8225 26.5345
head 3.29862 -12.2184 9.84486
lclavicle 1.18078e-13 3.02153e-14 0
lhumerus -58.3003 -28.687 114.445
lradius 100.954 -0 0
lwrist 50.0888 0 0
lhand -0.0106106 32.1683 -0.0211273
lfingers 7.12502 -0 0
lthumb 25.5901 60.5844 0.00771478
rclavicle 1.18078e-13 3.02153e-14 0
rhumerus -6.50894 49.871 -52.1718
rradius 132.1 -0 0
rwrist -14.9237 0 0
rhand 7.54916 -29.1148 0.0175702
rfingers 7.12502 -0 0
rthumb 32.8256 -56.4831 -0.0583197
1739
root -4.837 15.5796 27.3709 -174.729 4.64377 -172.777
lfemur -40.349 1.04857 -11.1404
ltibia 52.5794 -0 0
lfoot -17.0626 21.2057 -0.0985784
ltoes -20.9972 0 0
rfemur -24.5932 -14.4902 16.3737
rtibia 59.0564 -0 0
rfoot -11.3393 -25.3313 0.00918905
rtoes 11.1939 -0 0
lowerback 17.1114 4.47497 -9.03851
upperback -0.0870794 4.24712 0.018001
thorax -10.5009 2.54618 3.9238
lowerneck 5.60094 -16.6821 -19.1449
upperneck -4.03446 -23.5893 26.3337
head 3.29989 -12.0698 9.79234
lclavicle 1.18078e-13 3.02153e-14 0
lhumerus -58.9757 -27.3763 113.423
lradius 101.383 -0 0
lwrist 49.4639 0 0
lhand -0.291461 31.3734 -0.0104861
lfingers 7.12502 -0 0
lthumb 25.3198 59.8141 0.0146389
rclavicle 1.18078e-13 3.02153e-14 0
rhumerus -9.67778 48.5769 -54.0413
rradius 130.486 -0 0
rwrist -14.3099 0 0
rhand 7.04462 -29.3924 0.0193851
rfingers 7.12502 -0 0
rthumb 32.3422 -56.8231 -0.047066
1740
root -4.76934 15.5818 27.4227 -174.841 7.28617 -172.883
lfemur -39.4689 -0.382428 -10.1929
ltibia 52.9515 -0 0
lfoot -16.9385 19.9698 -0.0971027
ltoes -23.0179 0 0
rfemur -25.6175 -15.1487 17.0148
rtibia 58.4198 -0 0
rfoot -11.8002 -25.1224 0.00458929
rtoes 10.2172 -0 0
lowerback 17.2284 4.666 -9.06865
upperback -0.0104075 4.47648 -0.164488
thorax -10.4811 2.64865 3.68315
lowerneck 5.35193 -16.4772 -18.964
upperneck -3.78291 -23.2575 26.0357
head 3.30441 -11.8639 9.70831
lclavicle 1.18078e-13 3.02153e-14 0
lhumerus -59.8343 -25.9534 112.362
lradius 101.857 -0 0
lwrist 48.6214 0 0
lhand -0.64448 30.5506 -0.00106848
lfingers 7.12502 -0 0
lthumb 24.9801 59.0222 0.0196961
rclavicle 1.18078e-13 3.02153e-14 0
rhumerus -12.5085 46.8768 -55.6243
rradius 128.229 -0 0
rwrist -13.511 0 0
rhand 6.33609 -29.6838 0.0217285
rfingers 7.12502 -0 0
rthumb 31.663 -57.2002 -0.0325608
1741
root -4.70167 15.584 27.4745 -174.891 10.7773 -172.949
lfemur -38.5891 -1.7594 -9.15705
ltibia 53.4876 -0 0
lfoot -16.7119 18.6937 -0.0913558
ltoes -25.0283 0 0
rfemur -26.5742 -16.0022 17.7334
rtibia 57.7111 -0 0
rfoot -12.2817 -24.9152 0.00135378
rtoes 9.09423 -0 0
lowerback 17.3174 4.88752 -9.0262
upperback 0.0511602 4.76295 -0.352617
thorax -10.4598 2.7745 3.38244
lowerneck 5.01099 -16.1963 -18.7061
upperneck -3.44352 -22.8143 25.6339
head 3.31354 -11.5941 9.58974
lclavicle 1.18078e-13 3.02153e-14 0
lhumerus -60.9149 -24.3963 111.255
lradius 102.385 -0 0
lwrist 47.5473 0 0
lhand -1.07136 29.6957 0.00609075
lfingers 7.12502 -0 0
lthumb 24.5693 58.2046 0.0219791
rclavicle 1.18078e-13 3.02153e-14 0
rhumerus -14.9918 44.7487 -56.9027
rradius 125.26 -0 0
rwrist -12.4992 0 0
rhand 5.39401 -29.9889 0.0231461
rfingers 7.12502 -0 0
rthumb 30.76 -57.6186 -0.0168971
